<svg width="29" height="37" viewBox="0 0 29 37" fill="none" xmlns="http://www.w3.org/2000/svg">
<path d="M14.1365 20.8864H14.1368C15.8298 20.8843 17.453 20.2109 18.6502 19.0137C19.8473 17.8165 20.5208 16.1934 20.5228 14.5003V14.5C20.5228 13.2369 20.1483 12.0022 19.4465 10.9519C18.7448 9.90171 17.7474 9.08315 16.5804 8.59978C15.4135 8.11641 14.1294 7.98994 12.8906 8.23636C11.6517 8.48278 10.5138 9.09102 9.62065 9.98417C8.7275 10.8773 8.11926 12.0153 7.87284 13.2541C7.62642 14.4929 7.75289 15.777 8.23626 16.944C8.71963 18.1109 9.53818 19.1083 10.5884 19.8101C11.6386 20.5118 12.8734 20.8864 14.1365 20.8864ZM12.2299 11.6466C12.7942 11.2695 13.4577 11.0682 14.1365 11.0682C15.0464 11.0692 15.9187 11.431 16.5621 12.0744C17.2055 12.7179 17.5674 13.5903 17.5683 14.5003C17.5682 15.1789 17.367 15.8423 16.9899 16.4066C16.6128 16.971 16.0769 17.4108 15.4498 17.6706C14.8227 17.9303 14.1327 17.9983 13.467 17.8659C12.8013 17.7335 12.1898 17.4066 11.7098 16.9267C11.2299 16.4467 10.903 15.8352 10.7706 15.1695C10.6382 14.5038 10.7062 13.8138 10.9659 13.1867C11.2256 12.5596 11.6655 12.0237 12.2299 11.6466Z" fill="#212121" stroke="#212121" stroke-width="0.5"/>
<path d="M14.5 35.7502L14.3093 35.5253L3.95606 23.3152L3.94992 23.3079L3.95006 23.3078C3.80538 23.1234 3.66219 22.9379 3.52053 22.7511C1.71896 20.378 0.745688 17.4793 0.750014 14.4998M14.5 35.7502L25.2816 22.5963C27.0493 20.2677 28.0043 17.4235 28 14.5H28.25C28.25 14.4999 28.25 14.4997 28.25 14.4996C28.2499 10.853 26.8012 7.35581 24.2227 4.77728C21.6441 2.19866 18.1467 0.75 14.5 0.75C10.8533 0.75 7.35591 2.19866 4.77729 4.77728C2.19871 7.35586 0.750063 10.8531 0.750014 14.4998M14.5 35.7502L14.6907 35.5253L25.0475 23.3104C25.0476 23.3103 25.0476 23.3103 25.0476 23.3102C25.0806 23.2714 25.1917 23.1272 25.2877 23.002L25.4207 22.8282L25.4632 22.7724L25.4751 22.7569L25.4782 22.7528L25.479 22.7518L25.4792 22.7515L25.4792 22.7515L25.4793 22.7514L25.2804 22.6L25.4793 22.7514L25.5044 22.7184L25.5058 22.7143L14.5 35.7502ZM0.750014 14.4998C0.750014 14.4999 0.750014 14.4999 0.750014 14.5H1.00001L0.750015 14.4996C0.750015 14.4997 0.750014 14.4997 0.750014 14.4998ZM5.96131 21.0787L5.8787 20.9699C4.46578 19.1093 3.70204 16.8366 3.70456 14.5003V14.5C3.70456 11.6369 4.84193 8.89099 6.86647 6.86646C8.89101 4.84192 11.6369 3.70454 14.5 3.70454C17.3631 3.70454 20.109 4.84192 22.1335 6.86646C24.1581 8.89099 25.2954 11.6369 25.2954 14.5V14.5003C25.2982 16.8351 24.5353 19.1065 23.1237 20.9663L23.1235 20.9665L23.1204 20.9706L23.1108 20.9833L23.0771 21.0277L22.9723 21.166C22.8945 21.2686 22.8141 21.3741 22.7873 21.4078L14.5 31.1823L6.22357 21.4211C6.19207 21.3817 6.10926 21.2731 6.02996 21.1688L5.96131 21.0787Z" fill="#212121" stroke="#212121" stroke-width="0.5"/>
</svg>
