<svg width="40" height="29" viewBox="0 0 40 29" fill="none" xmlns="http://www.w3.org/2000/svg">
<path d="M9.09091 29C7.57576 29 6.28788 28.4714 5.22727 27.4141C4.16667 26.3568 3.63636 25.0729 3.63636 23.5625H0V0H29.0909V7.25H34.5455L40 14.5V23.5625H36.3636C36.3636 25.0729 35.8333 26.3568 34.7727 27.4141C33.7121 28.4714 32.4242 29 30.9091 29C29.3939 29 28.1061 28.4714 27.0455 27.4141C25.9848 26.3568 25.4545 25.0729 25.4545 23.5625H14.5455C14.5455 25.0729 14.0152 26.3568 12.9545 27.4141C11.8939 28.4714 10.6061 29 9.09091 29ZM9.09091 25.375C9.60606 25.375 10.0382 25.201 10.3873 24.853C10.7352 24.5062 10.9091 24.076 10.9091 23.5625C10.9091 23.049 10.7352 22.6188 10.3873 22.272C10.0382 21.924 9.60606 21.75 9.09091 21.75C8.57576 21.75 8.14364 21.924 7.79455 22.272C7.44667 22.6188 7.27273 23.049 7.27273 23.5625C7.27273 24.076 7.44667 24.5062 7.79455 24.853C8.14364 25.201 8.57576 25.375 9.09091 25.375ZM3.63636 19.9375H5.09091C5.60606 19.3937 6.19697 18.9557 6.86364 18.6234C7.5303 18.2911 8.27273 18.125 9.09091 18.125C9.90909 18.125 10.6515 18.2911 11.3182 18.6234C11.9848 18.9557 12.5758 19.3937 13.0909 19.9375H25.4545V3.625H3.63636V19.9375ZM30.9091 25.375C31.4242 25.375 31.8558 25.201 32.2036 24.853C32.5527 24.5062 32.7273 24.076 32.7273 23.5625C32.7273 23.049 32.5527 22.6188 32.2036 22.272C31.8558 21.924 31.4242 21.75 30.9091 21.75C30.3939 21.75 29.9624 21.924 29.6145 22.272C29.2655 22.6188 29.0909 23.049 29.0909 23.5625C29.0909 24.076 29.2655 24.5062 29.6145 24.853C29.9624 25.201 30.3939 25.375 30.9091 25.375ZM29.0909 16.3125H36.8182L32.7273 10.875H29.0909V16.3125Z" fill="#212121"/>
</svg>
