<svg width="39" height="31" viewBox="0 0 39 31" fill="none" xmlns="http://www.w3.org/2000/svg">
<path d="M0 6.34091C0 4.6592 0.660362 3.04636 1.83581 1.85721C3.01126 0.668058 4.60552 0 6.26786 0H32.7321C34.3945 0 35.9887 0.668058 37.1642 1.85721C38.3396 3.04636 39 4.6592 39 6.34091V24.6591C39 26.3408 38.3396 27.9536 37.1642 29.1428C35.9887 30.3319 34.3945 31 32.7321 31H6.26786C4.60552 31 3.01126 30.3319 1.83581 29.1428C0.660362 27.9536 0 26.3408 0 24.6591V6.34091ZM6.26786 2.81818C5.34434 2.81818 4.45864 3.18933 3.80561 3.84996C3.15258 4.5106 2.78571 5.40662 2.78571 6.34091V8.45455H36.2143V6.34091C36.2143 5.40662 35.8474 4.5106 35.1944 3.84996C34.5414 3.18933 33.6557 2.81818 32.7321 2.81818H6.26786ZM2.78571 24.6591C2.78571 25.5934 3.15258 26.4894 3.80561 27.15C4.45864 27.8107 5.34434 28.1818 6.26786 28.1818H32.7321C33.6557 28.1818 34.5414 27.8107 35.1944 27.15C35.8474 26.4894 36.2143 25.5934 36.2143 24.6591V11.2727H2.78571V24.6591ZM26.4643 19.7273H30.6429C31.0123 19.7273 31.3665 19.8757 31.6278 20.14C31.889 20.4042 32.0357 20.7626 32.0357 21.1364C32.0357 21.5101 31.889 21.8685 31.6278 22.1327C31.3665 22.397 31.0123 22.5455 30.6429 22.5455H26.4643C26.0949 22.5455 25.7406 22.397 25.4794 22.1327C25.2182 21.8685 25.0714 21.5101 25.0714 21.1364C25.0714 20.7626 25.2182 20.4042 25.4794 20.14C25.7406 19.8757 26.0949 19.7273 26.4643 19.7273Z" fill="#212121"/>
</svg>
