<svg width="38" height="38" viewBox="0 0 38 38" fill="none" xmlns="http://www.w3.org/2000/svg">
<path d="M19.8 27.75H19.55V28V34.1254C19.4427 34.093 19.3328 34.0593 19.2206 34.0244C17.3874 33.4514 14.963 32.5166 12.5588 31.0717C7.77084 28.1934 3.25 23.4429 3.25 15.5C3.25 8.73407 8.73407 3.25 15.5 3.25H22.5C29.2659 3.25 34.75 8.73407 34.75 15.5C34.75 22.2659 29.2659 27.75 22.5 27.75H19.8ZM21.7584 37.2465L22.05 37.2957V37V30.25H22.5C30.6461 30.25 37.25 23.6461 37.25 15.5C37.25 7.35393 30.6461 0.75 22.5 0.75H15.5C7.35393 0.75 0.75 7.35393 0.75 15.5C0.75 22.8659 4.19478 27.8389 8.28934 31.1399C12.3766 34.4349 17.1143 36.0681 19.7346 36.7783L19.7348 36.7783C20.3575 36.9466 20.8618 37.0634 21.2111 37.1382C21.3858 37.1756 21.5218 37.2026 21.6146 37.2202C21.6609 37.229 21.6965 37.2355 21.7206 37.2399L21.7483 37.2448L21.7555 37.246L21.7575 37.2464L21.7581 37.2465L21.7583 37.2465L21.7583 37.2465L21.8 37L21.7584 37.2465Z" fill="black" stroke="#212121" stroke-width="0.5"/>
<path fill-rule="evenodd" clip-rule="evenodd" d="M22.691 7.48197C23.721 8.16597 24.497 9.27497 24.497 10.762C24.497 12.34 23.861 13.5 22.83 14.21C22.423 14.4855 21.9738 14.6929 21.5 14.824V16.356C21.5 16.7538 21.342 17.1353 21.0607 17.4166C20.7794 17.6979 20.3978 17.856 20 17.856C19.6022 17.856 19.2207 17.6979 18.9393 17.4166C18.658 17.1353 18.5 16.7538 18.5 16.356V13.559C18.4999 13.1784 18.6445 12.812 18.9044 12.5341C19.1644 12.2561 19.5203 12.0873 19.9 12.062C20.454 12.025 20.874 11.915 21.127 11.74C21.2296 11.672 21.3124 11.5782 21.367 11.468C21.427 11.348 21.497 11.134 21.497 10.761C21.497 10.448 21.375 10.209 21.03 9.97897C20.638 9.71897 20.008 9.52697 19.251 9.50297C18.503 9.47897 17.776 9.62497 17.241 9.88397C16.705 10.144 16.508 10.436 16.453 10.651C16.404 10.8418 16.3179 11.0211 16.1997 11.1786C16.0814 11.3362 15.9332 11.4689 15.7637 11.5691C15.5941 11.6694 15.4065 11.7353 15.2114 11.7631C15.0164 11.7909 14.8178 11.78 14.627 11.731C14.4362 11.682 14.2569 11.5959 14.0994 11.4776C13.9418 11.3593 13.8091 11.2112 13.7088 11.0416C13.6085 10.8721 13.5426 10.6844 13.5149 10.4894C13.4871 10.2944 13.498 10.0958 13.547 9.90497C13.892 8.56397 14.895 7.68797 15.933 7.18497C16.973 6.67997 18.196 6.46697 19.346 6.50397C20.489 6.53997 21.709 6.82797 22.691 7.48197V7.48197Z" fill="black"/>
<path d="M22 22C22 22.5304 21.7893 23.0391 21.4142 23.4142C21.0391 23.7893 20.5304 24 20 24C19.4696 24 18.9609 23.7893 18.5858 23.4142C18.2107 23.0391 18 22.5304 18 22C18 21.4696 18.2107 20.9609 18.5858 20.5858C18.9609 20.2107 19.4696 20 20 20C20.5304 20 21.0391 20.2107 21.4142 20.5858C21.7893 20.9609 22 21.4696 22 22V22Z" fill="black"/>
</svg>
